<svg version="1.2" xmlns="http://www.w3.org/2000/svg" viewBox="0 0 1640 426" width="385" height="100">
	<title>warpstar logo</title>
	<style>
		.s0 { fill: #ffffff } 
	</style>
	<path id="warprail" class="s0" aria-label="warprail"  d="m172.1 322h-61.1l-56.5-207.3h60l30.6 121.9 37.2-121.9h52.5l37.2 122.3 30.2-122.3h59.2l-56.8 207.3h-60.8l-36-119.9zm274.3 3.5q-22 0-39.2-8.2-16.9-8.3-26.7-22.8-9.4-14.5-9.4-33.3 0-29.7 22.4-45.8 22.7-16.5 63.1-16.5 24.3 0 47 5.9v-10.2q0-15.7-10.2-23.1-9.8-7.8-29.4-7.8-12.1 0-27.4 3.9-14.9 3.9-35.3 12.5l-22.7-46.6q25.5-11.4 49-16.9 23.9-5.9 47.8-5.9 43.1 0 67 20.8 23.9 20.4 23.9 57.6v132.9h-62.7v-12.6q-12.5 8.7-26.7 12.6-13.7 3.5-30.5 3.5zm-14.9-65.4q0 9.8 8.6 15.2 8.6 5.5 23.9 5.5 11.4 0 21.2-2.3 10.2-2.4 18.4-7.5v-26.6q-9-2.4-18.4-3.5-9.4-1.2-19.2-1.2-16.5 0-25.5 5.5-9 5.1-9 14.9zm235.9 61.9h-63.5v-207.3h63.5v20.7q10.2-12.5 23.9-18.8 13.7-6.6 30.6-6.6 16.8 0.4 23.9 5.1v55.2q-6.3-3.1-14.1-4.7-7.9-1.6-16.1-1.6-14.9 0-27.8 7.1-12.6 6.7-20.4 19.2zm169.3 80h-63.5v-287.3h62.7v15.3q24.7-18.1 55.7-18.1 29.8 0 53.7 14.5 23.9 14.2 38 38.5 14.1 23.9 14.1 53.6 0 29.8-14.5 54.1-14.1 23.9-38.8 38-24.3 14.1-54.5 14.1-14.5 0-27.8-3.5-13.3-3.5-25.1-10.2zm43.9-130.9q15.7 0 27.8-6.6 12.2-7.1 19.2-18.8 7.5-12.2 7.5-27.1 0-14.9-7.5-26.6-7-12.2-19.6-18.8-12.1-7.1-27.4-7.1-13.3 0-24.3 4.3-11 3.9-19.6 12.2v72.5q8.2 7.4 19.6 11.7 11.4 4.3 24.3 4.3zm210.1 51h-63.5v-207.3h63.5v20.7q10.1-12.5 23.9-18.8 13.7-6.6 30.5-6.6 16.9 0.4 23.9 5.1v55.2q-6.2-3.1-14.1-4.7-7.8-1.5-16-1.5-14.9 0-27.9 7-12.5 6.7-20.3 19.2zm168.1 3.5q-22 0-39.2-8.2-16.9-8.2-26.7-22.7-9.4-14.5-9.4-33.3 0-29.8 22.4-45.9 22.7-16.4 63.1-16.4 24.3 0 47 5.8v-10.2q0-15.6-10.2-23.1-9.8-7.8-29.4-7.8-12.1 0-27.4 3.9-14.9 3.9-35.3 12.5l-22.7-46.6q25.5-11.4 49-16.8 23.9-5.9 47.8-5.9 43.1 0 67 20.7 23.9 20.4 23.9 57.7v132.8h-62.7v-12.5q-12.5 8.6-26.7 12.5-13.7 3.5-30.5 3.5zm-14.9-65.4q0 9.8 8.6 15.3 8.6 5.5 23.9 5.5 11.4 0 21.2-2.4 10.2-2.3 18.4-7.4v-26.7q-9-2.3-18.4-3.5-9.4-1.2-19.2-1.2-16.5 0-25.5 5.5-9 5.1-9 14.9zm235.9 61.9h-63.5v-207.3h63.5zm-31.7-226.5q-14.5 0-24.7-10.2-10.2-10.2-10.2-24.7 0-14.5 10.2-24.7 10.2-10.2 24.7-10.2 14.5 0 24.6 10.2 10.2 10.2 10.2 24.7 0 14.5-10.2 24.7-10.1 10.2-24.6 10.2zm134.4 226.5h-63.5v-274.3l63.5-9.8z"/>
</svg>